<?xml version="1.0" standalone="no"?>
<!DOCTYPE svg PUBLIC "-//W3C//DTD SVG 20010904//EN"
 "http://www.w3.org/TR/2001/REC-SVG-20010904/DTD/svg10.dtd">
<svg version="1.0" xmlns="http://www.w3.org/2000/svg"
 width="1024.000000pt" height="1024.000000pt" viewBox="0 0 1024.000000 1024.000000"
 preserveAspectRatio="xMidYMid meet">

<g transform="translate(0.000000,1024.000000) scale(0.100000,-0.100000)"
fill="#000000" stroke="none">
<path d="M5150 9133 c-232 -22 -417 -52 -625 -103 -348 -84 -601 -176 -897
-327 -203 -104 -268 -149 -268 -190 0 -13 42 -131 94 -261 78 -197 163 -426
241 -657 37 -108 95 -301 95 -317 0 -12 -36 -36 -121 -79 -134 -68 -281 -162
-319 -203 -37 -40 -35 -104 4 -145 48 -50 128 -65 307 -58 l151 6 -5 -22 c-24
-106 -50 -237 -72 -367 -49 -285 -113 -507 -258 -896 -142 -379 -233 -700
-305 -1074 -53 -272 -77 -474 -107 -915 -46 -667 -119 -966 -308 -1247 -72
-108 -169 -211 -247 -260 -71 -46 -93 -71 -93 -107 0 -62 64 -112 183 -142 84
-21 351 -19 471 5 91 18 100 18 194 2 197 -34 460 -30 648 10 38 8 70 14 71
14 6 0 56 -118 56 -132 0 -8 -13 -51 -30 -96 -49 -135 -40 -227 29 -285 62
-52 64 -52 671 -52 525 0 568 1 593 18 29 19 38 69 15 84 -7 4 190 10 439 13
439 5 452 6 480 26 94 70 -34 205 -268 284 -35 12 -138 37 -227 55 -90 19
-180 43 -200 53 -49 25 -74 70 -74 131 0 71 25 114 115 194 147 131 268 251
330 327 330 407 557 1090 557 1676 l0 102 88 12 c115 16 224 49 356 105 60 25
110 44 112 42 2 -2 -2 -19 -8 -38 -10 -26 -13 -372 -16 -1429 -2 -767 0 -1419
3 -1448 4 -33 14 -61 26 -73 26 -26 80 -25 105 2 18 20 19 63 24 1473 5 1404
6 1453 25 1504 19 53 19 53 55 47 46 -9 88 -33 114 -68 19 -25 21 -42 21 -146
0 -139 7 -154 68 -149 63 5 81 38 85 151 3 75 8 96 24 113 10 12 26 43 34 69
39 132 -11 302 -118 402 -99 91 -211 129 -473 163 -322 41 -475 93 -629 217
-44 35 -52 49 -105 183 -83 209 -169 372 -300 565 -63 94 -123 191 -133 218
-41 106 -13 268 65 374 72 97 210 209 310 252 109 47 377 89 667 106 154 9
180 17 180 58 0 24 -11 41 -50 78 -68 63 -160 110 -320 159 -360 111 -499 164
-557 214 -17 15 -54 56 -82 91 l-50 64 89 47 c155 82 279 190 296 260 15 60
-33 124 -107 144 -58 16 -227 7 -384 -20 -66 -11 -127 -23 -137 -26 -20 -6
-28 16 -108 321 -86 328 -137 538 -171 705 -26 131 -32 148 -59 173 -29 26
-34 27 -128 25 -53 0 -113 -3 -132 -5z m167 -236 c16 -97 91 -408 143 -594 22
-78 40 -146 40 -152 0 -5 -19 -12 -42 -16 -502 -81 -928 -209 -1594 -482 -6
-2 -14 4 -17 14 -17 61 -156 438 -221 602 -42 107 -75 200 -72 206 6 17 324
170 476 230 308 121 637 204 960 244 91 11 179 22 195 24 17 3 50 4 74 3 l45
-1 13 -78z m250 -982 c7 -21 10 -42 6 -46 -5 -4 -64 -19 -133 -33 -317 -64
-922 -259 -1302 -420 -85 -36 -160 -66 -165 -66 -5 0 -21 34 -36 75 l-26 76
27 10 c563 218 1100 382 1422 433 177 29 187 27 207 -29z m587 -123 c-5 -4
-30 -21 -54 -38 -25 -17 -74 -46 -110 -64 -36 -18 -77 -41 -93 -52 l-27 -19
-76 47 c-51 32 -71 50 -62 54 27 15 276 70 349 78 75 8 92 7 73 -6z m-649
-187 c140 -37 276 -122 377 -237 84 -95 148 -161 176 -180 l23 -16 -56 -53
c-74 -70 -128 -166 -129 -230 -1 -38 5 -54 31 -86 l31 -39 -84 -75 c-201 -176
-270 -221 -394 -254 -191 -51 -385 -24 -743 105 -168 60 -212 69 -247 50 -37
-20 -33 -85 9 -117 44 -34 419 -166 553 -194 l57 -12 -26 -51 c-100 -198 -118
-422 -54 -666 17 -63 47 -169 66 -235 61 -203 78 -331 72 -535 -4 -152 -9
-191 -35 -291 -16 -64 -38 -135 -49 -159 l-19 -44 -85 139 c-47 77 -116 190
-154 250 -136 219 -167 317 -170 533 -2 172 -10 192 -71 192 -33 0 -55 -15
-77 -53 -16 -29 -15 -253 2 -332 37 -170 80 -259 275 -575 121 -196 177 -310
212 -430 28 -98 26 -323 -4 -445 -24 -96 -97 -259 -130 -288 -19 -17 -20 -16
-52 75 -69 199 -171 380 -281 502 -29 32 -121 116 -203 186 -287 242 -403 396
-490 650 -39 111 -53 130 -97 130 -32 0 -69 -40 -69 -75 0 -48 53 -203 102
-298 94 -183 196 -304 418 -497 74 -64 165 -149 202 -188 63 -67 138 -167 138
-185 0 -4 -29 -47 -64 -95 -186 -253 -416 -678 -494 -912 -57 -173 -76 -288
-69 -425 4 -60 11 -127 17 -148 6 -22 10 -41 7 -43 -15 -15 -176 -35 -317 -40
-187 -6 -185 -10 -43 71 104 59 173 121 173 155 0 34 -38 70 -72 70 -17 0 -67
-23 -126 -59 -212 -128 -382 -200 -529 -226 -87 -15 -258 -20 -326 -9 l-37 7
94 97 c182 188 298 403 370 685 47 187 73 389 111 851 42 516 65 691 125 951
109 479 150 619 314 1066 128 347 171 497 246 862 82 398 99 453 188 630 53
107 129 217 160 234 54 29 577 213 732 257 221 64 277 74 370 69 47 -3 112
-12 145 -20z m-1575 -489 c0 -2 -16 -37 -35 -78 -41 -86 -37 -84 -225 -94 -86
-5 -122 -3 -115 4 22 22 326 172 350 172 14 0 25 -2 25 -4z m2532 -86 c244
-55 246 -56 98 -64 -200 -11 -347 -26 -403 -42 -88 -26 -107 -28 -107 -12 0
20 66 95 113 129 54 39 87 38 299 -11z m-810 -771 c-9 -149 16 -215 152 -404
154 -215 254 -414 345 -681 125 -369 167 -661 158 -1097 -5 -271 -18 -377 -68
-587 -130 -545 -383 -976 -740 -1261 -141 -112 -196 -216 -187 -352 8 -116 59
-196 157 -246 45 -24 94 -37 207 -56 100 -17 275 -62 286 -73 4 -4 -172 -6
-391 -4 l-398 2 5 68 c11 161 -55 304 -180 384 l-49 32 64 33 c105 52 143 117
97 163 -40 40 -87 27 -324 -92 -208 -104 -277 -163 -332 -282 -46 -101 -32
-198 37 -261 56 -50 111 -71 247 -95 64 -11 155 -31 202 -44 l85 -25 -427 2
c-427 2 -428 2 -450 24 l-22 22 38 110 c44 130 44 134 -25 306 -65 163 -83
259 -76 400 6 114 30 222 74 335 40 104 156 340 218 447 64 109 241 380 254
387 4 3 23 -41 41 -97 58 -182 92 -228 170 -229 50 0 96 28 159 99 84 94 144
230 176 396 19 102 20 321 0 422 l-14 76 49 102 c54 114 101 262 121 382 8 48
14 162 14 285 0 228 -12 302 -82 525 -109 346 -119 526 -42 725 16 43 44 93
62 113 30 35 37 37 122 47 81 10 214 47 254 70 9 5 16 10 17 10 0 0 -1 -36 -4
-81z m958 -1412 c108 -32 159 -42 350 -67 191 -24 240 -35 310 -69 75 -36 133
-95 159 -165 30 -80 28 -97 -6 -63 -16 14 -50 36 -78 49 -43 20 -66 23 -155
22 -115 0 -118 -1 -350 -102 -126 -54 -260 -92 -326 -92 -50 0 -45 -13 -64
180 -10 99 -43 296 -65 382 l-7 26 74 -38 c40 -21 111 -50 158 -63z m-1745
-2996 c70 -33 106 -69 134 -131 24 -54 39 -170 22 -170 -6 0 -43 9 -83 20 -40
10 -111 24 -158 30 -108 14 -177 36 -191 62 -26 49 24 135 110 189 57 36 91
36 166 0z"/>
<path d="M5434 7261 c-23 -10 -54 -36 -70 -57 -38 -50 -40 -124 -4 -177 69
-101 220 -104 280 -5 56 93 25 194 -75 239 -51 23 -79 23 -131 0z"/>
</g>
</svg>
